<svg width="311.14882812499997px" height="97.76000366210937px" xmlns="http://www.w3.org/2000/svg" viewBox="94.42558593750002 26.119998168945315 311.14882812499997 97.76000366210937" style="background: rgb(255, 255, 255);" preserveAspectRatio="xMidYMid"><defs><linearGradient id="editing-shiny-gradient" x1="0.871572412738697" x2="0.128427587261303" y1="0.16543469682057083" y2="0.8345653031794291" gradientUnits="objectBoundingBox"><stop offset="0.0" stop-color="#5d3a27"></stop><stop offset="0.5" stop-color="#311e0e"></stop><stop offset="1.0" stop-color="#745f2d"></stop></linearGradient><linearGradient id="editing-shiny-gradient2" x1="0" x2="0" y1="0" y2="1"><stop offset="0.2" stop-color="#fff" stop-opacity="0.8"></stop><stop offset="0.8" stop-color="#fff" stop-opacity="0"></stop></linearGradient><filter id="editing-shiny2" x="-100%" y="-100%" width="300%" height="300%"><feMorphology operator="erode" radius="2"></feMorphology></filter><filter id="editing-shiny" x="-100%" y="-100%" width="300%" height="300%"><feFlood flood-color="#fff" result="flood"></feFlood><feConvolveMatrix in="SourceGraphic" result="conv" order="8,8" divisor="1" kernelMatrix="0 0 0 0 0 0 0 0 0 0 0 1 1 0 0 0 0 0 0 1 1 0 0 0 0 0 1 0 0 1 0 0 0 0 1 0 0 1 0 0 0 1 0 0 0 0 1 0 0 1 1 0 0 1 1 0 0 0 0 1 1 0 0 0 "></feConvolveMatrix><feOffset dx="0" dy="4" in="conv" result="offset"></feOffset><feComposite operator="in" in="flood" in2="offset" result="comp"></feComposite><feGaussianBlur in="offset" stdDeviation="3" result="shadow"></feGaussianBlur><feColorMatrix in="shadow" type="matrix" values="0.7 0 0 0 0  0 0.7 0 0 0  0 0 0.7 0 0  0 0 0 0.3 0" result="dark-shadow"></feColorMatrix><feOffset dx="0" dy="4" in="dark-shadow" result="offset-shadow"></feOffset><feOffset dx="0" dy="2" in="conv" result="offset-2"></feOffset><feComposite operator="out" in="offset" in2="offset-2" result="edge-diff"></feComposite><feGaussianBlur in="edge-diff" stdDeviation="1" result="edge-blur"></feGaussianBlur><feColorMatrix in="edge-blur" result="edge-shadow" type="matrix" values="0 0 0 0 0  0 0 0 0 0  0 0 0 0 0  0 0 0 0.5 0"></feColorMatrix><feComposite operator="in" in="edge-shadow" in2="offset" result="edge-shadow-in"></feComposite><feOffset dx="0" dy="1" in="edge-shadow-in" result="edge-shadow-final"></feOffset><feMerge result="out"><feMergeNode in="offset-shadow"></feMergeNode><feMergeNode in="comp"></feMergeNode><feMergeNode in="edge-shadow-final"></feMergeNode><feMergeNode in="SourceGraphic"></feMergeNode></feMerge></filter></defs><g filter="url(#editing-shiny)"><g transform="translate(144.01635193824768, 93.13000106811523)"><path d="M22.34 0.98L22.34 0.98L22.34 0.98Q16.07 0.98 15.48-7.94L15.48-7.94L7.06-7.94L7.06-7.94Q6.08-5.68 5.39-3.72L5.39-3.72L4.12 0L-2.74 0L12.69-32.34L23.23-32.34L25.28-8.53L25.28-8.53Q25.77-3.38 27.73-1.86L27.73-1.86L27.73-1.86Q26.31 0.98 22.34 0.98ZM11.27-17.74L8.58-11.52L15.34-11.52L14.75-24.11L14.75-25.43L11.27-17.74ZM35.97-8.97L48.27-25.92L48.27-25.92Q43.81-24.06 39.94-24.06L39.94-24.06L39.94-24.06Q36.06-24.06 34.05-25.38L34.05-25.38L34.05-25.38Q32.05-26.71 32.05-29.01L32.05-29.01L32.05-29.01Q32.05-30.43 32.46-31.51L32.46-31.51L32.46-31.51Q32.88-32.59 33.96-33.91L33.96-33.91L33.96-33.91Q34.45-32.93 41.11-32.44L41.11-32.44L41.11-32.44Q42.88-32.34 44.44-32.34L44.44-32.34L55.32-32.34L56.40-28.22L54.15-24.70L51.94-20.92L48.95-15.39L48.95-15.39Q46.50-10.73 45.79-8.62L45.79-8.62L45.79-8.62Q45.08-6.52 44.93-5.68L44.93-5.68L44.93-5.68Q44.64-4.46 44.64-3.41L44.64-3.41L44.64-3.41Q44.64-2.35 45.18-1.81L45.18-1.81L45.18-1.81Q44.20-0.05 41.31 0.73L41.31 0.73L41.31 0.73Q40.38 0.98 39.25 0.98L39.25 0.98L39.25 0.98Q38.12 0.98 37.14 0.54L37.14 0.54L37.14 0.54Q36.16 0.10 35.53-0.59L35.53-0.59L35.53-0.59Q34.30-2.06 34.30-3.75L34.30-3.75L34.30-3.75Q34.30-5.44 34.79-6.64L34.79-6.64L34.79-6.64Q35.28-7.84 35.97-8.97L35.97-8.97ZM83.55-3.68L83.55-3.68L83.55-3.68Q83.55-7.11 84.92-13.96L84.92-13.96L77.67-13.96L74.97 0L64.73 0L70.95-32.34L81.29-32.34L78.45-17.89L85.70-17.89L88.40-32.34L98.74-32.34L98.74-32.34Q98.05-28.71 97.17-24.65L97.17-24.65L95.50-16.66L95.50-16.66Q93.64-7.35 93.64-3.28L93.64-3.28L93.64-3.28Q93.64-1.62 94.18-0.69L94.18-0.69L94.18-0.69Q91.73 0.98 88.86 0.98L88.86 0.98L88.86 0.98Q86.00 0.98 84.77-0.39L84.77-0.39L84.77-0.39Q83.55-1.76 83.55-3.68ZM110.59 0.98L110.59 0.98L110.59 0.98Q99.81 0.98 99.81-9.16L99.81-9.16L99.81-9.16Q99.81-16.37 103.78-21.02L103.78-21.02L103.78-21.02Q108.00-25.97 115.30-25.97L115.30-25.97L115.30-25.97Q120.59-25.97 123.28-23.52L123.28-23.52L123.28-23.52Q125.98-21.07 125.98-15.93L125.98-15.93L125.98-15.93Q125.98-8.09 121.77-3.53L121.77-3.53L121.77-3.53Q117.65 0.98 110.59 0.98ZM111.87-20.34L111.87-20.34L111.87-20.34Q111.28-19.01 110.81-17.03L110.81-17.03L110.81-17.03Q110.35-15.04 109.76-11.91L109.76-11.91L109.76-11.91Q109.17-8.77 109.17-4.90L109.17-4.90L109.17-4.90Q109.17-3.63 109.59-2.79L109.59-2.79L109.59-2.79Q110.00-1.96 111.13-1.96L111.13-1.96L111.13-1.96Q112.26-1.96 112.97-2.50L112.97-2.50L112.97-2.50Q113.68-3.04 114.22-4.31L114.22-4.31L114.22-4.31Q115.20-6.57 115.98-10.76L115.98-10.76L115.98-10.76Q116.77-14.95 116.84-16.76L116.84-16.76L116.84-16.76Q116.91-18.57 116.91-19.92L116.91-19.92L116.91-19.92Q116.91-21.27 116.52-22.15L116.52-22.15L116.52-22.15Q116.13-23.03 115.03-23.03L115.03-23.03L115.03-23.03Q113.93-23.03 113.19-22.34L113.19-22.34L113.19-22.34Q112.45-21.66 111.87-20.34ZM143.52-17.20L143.52-17.20L143.52-17.20Q144.21-19.01 144.21-20.58L144.21-20.58L144.21-20.58Q144.21-23.47 141.86-23.47L141.86-23.47L141.86-23.47Q140.63-23.47 139.63-22.37L139.63-22.37L139.63-22.37Q138.62-21.27 138.62-19.89L138.62-19.89L138.62-19.89Q138.62-18.91 139.41-18.13L139.41-18.13L139.41-18.13Q140.53-17.05 143.42-15.29L143.42-15.29L143.42-15.29Q146.31-13.52 147.42-12.08L147.42-12.08L147.42-12.08Q148.52-10.63 148.52-8.65L148.52-8.65L148.52-8.65Q148.52-6.66 147.56-4.85L147.56-4.85L147.56-4.85Q146.61-3.04 144.89-1.76L144.89-1.76L144.89-1.76Q141.22 0.98 135.34 0.98L135.34 0.98L135.34 0.98Q132.15 0.98 129.70-0.69L129.70-0.69L129.70-0.69Q127.25-2.30 127.25-4.21L127.25-4.21L127.25-4.21Q127.25-6.13 128.65-7.25L128.65-7.25L128.65-7.25Q130.05-8.38 132.10-8.38L132.10-8.38L132.10-8.38Q134.16-8.38 135.44-7.60L135.44-7.60L135.44-7.60Q134.80-5.98 134.80-4.90L134.80-4.90L134.80-4.90Q134.80-1.67 137.54-1.67L137.54-1.67L137.54-1.67Q138.72-1.67 139.50-2.40L139.50-2.40L139.50-2.40Q140.29-3.14 140.29-4.41L140.29-4.41L140.29-4.41Q140.29-6.91 136.07-9.55L136.07-9.55L136.07-9.55Q132.64-11.81 131.86-12.69L131.86-12.69L131.86-12.69Q130.54-14.26 130.54-16.22L130.54-16.22L130.54-16.22Q130.54-18.18 131.47-20.04L131.47-20.04L131.47-20.04Q132.40-21.90 134.11-23.23L134.11-23.23L134.11-23.23Q137.69-25.97 143.91-25.97L143.91-25.97L143.91-25.97Q147.10-25.97 148.98-24.70L148.98-24.70L148.98-24.70Q150.87-23.42 150.87-21.27L150.87-21.27L150.87-21.27Q150.87-19.11 149.57-17.89L149.57-17.89L149.57-17.89Q148.27-16.66 145.92-16.66L145.92-16.66L145.92-16.66Q144.31-16.66 143.52-17.20ZM153.47-4.90L153.47-4.90L153.47-4.90Q153.47-6.22 154.15-9.55L154.15-9.55L156.75-22.79L153.86-22.79L154.06-24.26L154.06-24.26Q159.94-26.02 165.62-30.33L165.62-30.33L167.97-30.33L166.80-24.99L170.62-24.99L170.18-22.79L166.40-22.79L163.91-9.55L163.91-9.55Q163.27-6.52 163.27-5.49L163.27-5.49L163.27-5.49Q163.27-3.14 165.33-2.65L165.33-2.65L165.33-2.65Q164.84-0.98 163.07 0L163.07 0L163.07 0Q161.31 0.98 158.81 0.98L158.81 0.98L158.81 0.98Q156.31 0.98 154.89-0.59L154.89-0.59L154.89-0.59Q153.47-2.16 153.47-4.90ZM190.02-8.28L190.02-8.28L190.02-8.28Q191.25-7.45 191.25-5.61L191.25-5.61L191.25-5.61Q191.25-3.77 190.32-2.60L190.32-2.60L190.32-2.60Q189.38-1.42 187.87-0.64L187.87-0.64L187.87-0.64Q184.73 0.98 181.35 0.98L181.35 0.98L181.35 0.98Q177.97 0.98 175.98 0.24L175.98 0.24L175.98 0.24Q174.00-0.49 172.68-1.86L172.68-1.86L172.68-1.86Q170.08-4.46 170.08-9.21L170.08-9.21L170.08-9.21Q170.08-16.61 174.10-21.12L174.10-21.12L174.10-21.12Q178.41-25.97 185.91-25.97L185.91-25.97L185.91-25.97Q190.56-25.97 192.86-24.01L192.86-24.01L192.86-24.01Q194.58-22.54 194.58-20.14L194.58-20.14L194.58-20.14Q194.58-11.52 179.68-11.52L179.68-11.52L179.68-11.52Q179.49-10.24 179.49-9.16L179.49-9.16L179.49-9.16Q179.49-6.91 180.49-6.05L180.49-6.05L180.49-6.05Q181.50-5.19 183.36-5.19L183.36-5.19L183.36-5.19Q185.22-5.19 187.20-6.05L187.20-6.05L187.20-6.05Q189.19-6.91 190.02-8.28ZM180.03-13.62L180.03-13.62L180.03-13.62Q183.50-13.62 185.51-15.78L185.51-15.78L185.51-15.78Q187.52-17.84 187.52-21.12L187.52-21.12L187.52-21.12Q187.52-22.25 187.11-22.86L187.11-22.86L187.11-22.86Q186.69-23.47 185.86-23.47L185.86-23.47L185.86-23.47Q185.02-23.47 184.31-23.15L184.31-23.15L184.31-23.15Q183.60-22.83 182.87-21.76L182.87-21.76L182.87-21.76Q181.06-19.31 180.03-13.62ZM207.96-2.70L207.96-2.70L207.96-2.70Q206.44 0.98 201.59 0.98L201.59 0.98L201.59 0.98Q199.14 0.98 197.57-0.73L197.57-0.73L197.57-0.73Q196.29-2.16 196.29-3.77L196.29-3.77L196.29-3.77Q196.29-7.45 198.01-15.48L198.01-15.48L201.59-34.30L211.53-35.28L206.78-10.49L206.78-10.49Q205.95-6.86 205.95-5.59L205.95-5.59L205.95-5.59Q205.95-2.79 207.96-2.70Z" fill="url(#editing-shiny-gradient)"></path></g></g><g filter="url(#editing-shiny2)"><g transform="translate(144.46224427223206, 93.13000106811523)"><path d="M22.34 0.98L22.34 0.98L22.34 0.98Q16.07 0.98 15.48-7.94L15.48-7.94L7.06-7.94L7.06-7.94Q6.08-5.68 5.39-3.72L5.39-3.72L4.12 0L-2.74 0L12.69-32.34L23.23-32.34L25.28-8.53L25.28-8.53Q25.77-3.38 27.73-1.86L27.73-1.86L27.73-1.86Q26.31 0.98 22.34 0.98ZM11.27-17.74L8.58-11.52L15.34-11.52L14.75-24.11L14.75-25.43L11.27-17.74ZM35.97-8.97L48.27-25.92L48.27-25.92Q43.81-24.06 39.94-24.06L39.94-24.06L39.94-24.06Q36.06-24.06 34.05-25.38L34.05-25.38L34.05-25.38Q32.05-26.71 32.05-29.01L32.05-29.01L32.05-29.01Q32.05-30.43 32.46-31.51L32.46-31.51L32.46-31.51Q32.88-32.59 33.96-33.91L33.96-33.91L33.96-33.91Q34.45-32.93 41.11-32.44L41.11-32.44L41.11-32.44Q42.88-32.34 44.44-32.34L44.44-32.34L55.32-32.34L56.40-28.22L54.15-24.70L51.94-20.92L48.95-15.39L48.95-15.39Q46.50-10.73 45.79-8.62L45.79-8.62L45.79-8.62Q45.08-6.52 44.93-5.68L44.93-5.68L44.93-5.68Q44.64-4.46 44.64-3.41L44.64-3.41L44.64-3.41Q44.64-2.35 45.18-1.81L45.18-1.81L45.18-1.81Q44.20-0.05 41.31 0.73L41.31 0.73L41.31 0.73Q40.38 0.98 39.25 0.98L39.25 0.98L39.25 0.98Q38.12 0.98 37.14 0.54L37.14 0.54L37.14 0.54Q36.16 0.10 35.53-0.59L35.53-0.59L35.53-0.59Q34.30-2.06 34.30-3.75L34.30-3.75L34.30-3.75Q34.30-5.44 34.79-6.64L34.79-6.64L34.79-6.64Q35.28-7.84 35.97-8.97L35.97-8.97ZM83.55-3.68L83.55-3.68L83.55-3.68Q83.55-7.11 84.92-13.96L84.92-13.96L77.67-13.96L74.97 0L64.73 0L70.95-32.34L81.29-32.34L78.45-17.89L85.70-17.89L88.40-32.34L98.74-32.34L98.74-32.34Q98.05-28.71 97.17-24.65L97.17-24.65L95.50-16.66L95.50-16.66Q93.64-7.35 93.64-3.28L93.64-3.28L93.64-3.28Q93.64-1.62 94.18-0.69L94.18-0.69L94.18-0.69Q91.73 0.98 88.86 0.98L88.86 0.98L88.86 0.98Q86.00 0.98 84.77-0.39L84.77-0.39L84.77-0.39Q83.55-1.76 83.55-3.68ZM110.59 0.98L110.59 0.98L110.59 0.98Q99.81 0.98 99.81-9.16L99.81-9.16L99.81-9.16Q99.81-16.37 103.78-21.02L103.78-21.02L103.78-21.02Q108.00-25.97 115.30-25.97L115.30-25.97L115.30-25.97Q120.59-25.97 123.28-23.52L123.28-23.52L123.28-23.52Q125.98-21.07 125.98-15.93L125.98-15.93L125.98-15.93Q125.98-8.09 121.77-3.53L121.77-3.53L121.77-3.53Q117.65 0.98 110.59 0.98ZM111.87-20.34L111.87-20.34L111.87-20.34Q111.28-19.01 110.81-17.03L110.81-17.03L110.81-17.03Q110.35-15.04 109.76-11.91L109.76-11.91L109.76-11.91Q109.17-8.77 109.17-4.90L109.17-4.90L109.17-4.90Q109.17-3.63 109.59-2.79L109.59-2.79L109.59-2.79Q110.00-1.96 111.13-1.96L111.13-1.96L111.13-1.96Q112.26-1.96 112.97-2.50L112.97-2.50L112.97-2.50Q113.68-3.04 114.22-4.31L114.22-4.31L114.22-4.31Q115.20-6.57 115.98-10.76L115.98-10.76L115.98-10.76Q116.77-14.95 116.84-16.76L116.84-16.76L116.84-16.76Q116.91-18.57 116.91-19.92L116.91-19.92L116.91-19.92Q116.91-21.27 116.52-22.15L116.52-22.15L116.52-22.15Q116.13-23.03 115.03-23.03L115.03-23.03L115.03-23.03Q113.93-23.03 113.19-22.34L113.19-22.34L113.19-22.34Q112.45-21.66 111.87-20.34ZM143.52-17.20L143.52-17.20L143.52-17.20Q144.21-19.01 144.21-20.58L144.21-20.58L144.21-20.58Q144.21-23.47 141.86-23.47L141.86-23.47L141.86-23.47Q140.63-23.47 139.63-22.37L139.63-22.37L139.63-22.37Q138.62-21.27 138.62-19.89L138.62-19.89L138.62-19.89Q138.62-18.91 139.41-18.13L139.41-18.13L139.41-18.13Q140.53-17.05 143.42-15.29L143.42-15.29L143.42-15.29Q146.31-13.52 147.42-12.08L147.42-12.08L147.42-12.08Q148.52-10.63 148.52-8.65L148.52-8.65L148.52-8.65Q148.52-6.66 147.56-4.85L147.56-4.85L147.56-4.85Q146.61-3.04 144.89-1.76L144.89-1.76L144.89-1.76Q141.22 0.98 135.34 0.98L135.34 0.98L135.34 0.98Q132.15 0.98 129.70-0.69L129.70-0.69L129.70-0.69Q127.25-2.30 127.25-4.21L127.25-4.21L127.25-4.21Q127.25-6.13 128.65-7.25L128.65-7.25L128.65-7.25Q130.05-8.38 132.10-8.38L132.10-8.38L132.10-8.38Q134.16-8.38 135.44-7.60L135.44-7.60L135.44-7.60Q134.80-5.98 134.80-4.90L134.80-4.90L134.80-4.90Q134.80-1.67 137.54-1.67L137.54-1.67L137.54-1.67Q138.72-1.67 139.50-2.40L139.50-2.40L139.50-2.40Q140.29-3.14 140.29-4.41L140.29-4.41L140.29-4.41Q140.29-6.91 136.07-9.55L136.07-9.55L136.07-9.55Q132.64-11.81 131.86-12.69L131.86-12.69L131.86-12.69Q130.54-14.26 130.54-16.22L130.54-16.22L130.54-16.22Q130.54-18.18 131.47-20.04L131.47-20.04L131.47-20.04Q132.40-21.90 134.11-23.23L134.11-23.23L134.11-23.23Q137.69-25.97 143.91-25.97L143.91-25.97L143.91-25.97Q147.10-25.97 148.98-24.70L148.98-24.70L148.98-24.70Q150.87-23.42 150.87-21.27L150.87-21.27L150.87-21.27Q150.87-19.11 149.57-17.89L149.57-17.89L149.57-17.89Q148.27-16.66 145.92-16.66L145.92-16.66L145.92-16.66Q144.31-16.66 143.52-17.20ZM153.47-4.90L153.47-4.90L153.47-4.90Q153.47-6.22 154.15-9.55L154.15-9.55L156.75-22.79L153.86-22.79L154.06-24.26L154.06-24.26Q159.94-26.02 165.62-30.33L165.62-30.33L167.97-30.33L166.80-24.99L170.62-24.99L170.18-22.79L166.40-22.79L163.91-9.55L163.91-9.55Q163.27-6.52 163.27-5.49L163.27-5.49L163.27-5.49Q163.27-3.14 165.33-2.65L165.33-2.65L165.33-2.65Q164.84-0.98 163.07 0L163.07 0L163.07 0Q161.31 0.98 158.81 0.98L158.81 0.98L158.81 0.98Q156.31 0.98 154.89-0.59L154.89-0.59L154.89-0.59Q153.47-2.16 153.47-4.90ZM190.02-8.28L190.02-8.28L190.02-8.28Q191.25-7.45 191.25-5.61L191.25-5.61L191.25-5.61Q191.25-3.77 190.32-2.60L190.32-2.60L190.32-2.60Q189.38-1.42 187.87-0.64L187.87-0.64L187.87-0.64Q184.73 0.98 181.35 0.98L181.35 0.98L181.35 0.98Q177.97 0.98 175.98 0.24L175.98 0.24L175.98 0.24Q174.00-0.49 172.68-1.86L172.68-1.86L172.68-1.86Q170.08-4.46 170.08-9.21L170.08-9.21L170.08-9.21Q170.08-16.61 174.10-21.12L174.10-21.12L174.10-21.12Q178.41-25.97 185.91-25.97L185.91-25.97L185.91-25.97Q190.56-25.97 192.86-24.01L192.86-24.01L192.86-24.01Q194.58-22.54 194.58-20.14L194.58-20.14L194.58-20.14Q194.58-11.52 179.68-11.52L179.68-11.52L179.68-11.52Q179.49-10.24 179.49-9.16L179.49-9.16L179.49-9.16Q179.49-6.91 180.49-6.05L180.49-6.05L180.49-6.05Q181.50-5.19 183.36-5.19L183.36-5.19L183.36-5.19Q185.22-5.19 187.20-6.05L187.20-6.05L187.20-6.05Q189.19-6.91 190.02-8.28ZM180.03-13.62L180.03-13.62L180.03-13.62Q183.50-13.62 185.51-15.78L185.51-15.78L185.51-15.78Q187.52-17.84 187.52-21.12L187.52-21.12L187.52-21.12Q187.52-22.25 187.11-22.86L187.11-22.86L187.11-22.86Q186.69-23.47 185.86-23.47L185.86-23.47L185.86-23.47Q185.02-23.47 184.31-23.15L184.31-23.15L184.31-23.15Q183.60-22.83 182.87-21.76L182.87-21.76L182.87-21.76Q181.06-19.31 180.03-13.62ZM207.96-2.70L207.96-2.70L207.96-2.70Q206.44 0.98 201.59 0.98L201.59 0.98L201.59 0.98Q199.14 0.98 197.57-0.73L197.57-0.73L197.57-0.73Q196.29-2.16 196.29-3.77L196.29-3.77L196.29-3.77Q196.29-7.45 198.01-15.48L198.01-15.48L201.59-34.30L211.53-35.28L206.78-10.49L206.78-10.49Q205.95-6.86 205.95-5.59L205.95-5.59L205.95-5.59Q205.95-2.79 207.96-2.70Z" fill="url(#editing-shiny-gradient2)"></path></g></g><style>text {
  font-size: 64px;
  font-family: Arial Black;
  dominant-baseline: central;
  text-anchor: middle;
}</style></svg>