<svg width="400.6952758789062px" height="120.8px" xmlns="http://www.w3.org/2000/svg" viewBox="49.65236206054689 14.600000000000001 400.6952758789062 120.8" style="background: rgba(0, 0, 0, 0);" preserveAspectRatio="xMidYMid"><defs><linearGradient id="editing-shiny-gradient" x1="0.04322727117869957" x2="0.9567727288213004" y1="0.2966316784620999" y2="0.7033683215379001" gradientUnits="objectBoundingBox"><stop offset="0.0" stop-color="#ffb200"></stop><stop offset="0.5" stop-color="#e10057"></stop><stop offset="1.0" stop-color="#5A1A80"></stop></linearGradient><linearGradient id="editing-shiny-gradient2" x1="0" x2="0" y1="0" y2="1"><stop offset="0.2" stop-color="#fff" stop-opacity="0.8"></stop><stop offset="0.8" stop-color="#fff" stop-opacity="0"></stop></linearGradient><filter id="editing-shiny2" x="-100%" y="-100%" width="300%" height="300%"><feMorphology operator="erode" radius="2"></feMorphology></filter><filter id="editing-shiny" x="-100%" y="-100%" width="300%" height="300%"><feFlood flood-color="#fff" result="flood"></feFlood><feConvolveMatrix in="SourceGraphic" result="conv" order="8,8" divisor="1" kernelMatrix="0 0 0 0 0 0 0 0 0 0 0 1 1 0 0 0 0 0 0 1 1 0 0 0 0 0 1 0 0 1 0 0 0 0 1 0 0 1 0 0 0 1 0 0 0 0 1 0 0 1 1 0 0 1 1 0 0 0 0 1 1 0 0 0 "></feConvolveMatrix><feOffset dx="0" dy="4" in="conv" result="offset"></feOffset><feComposite operator="in" in="flood" in2="offset" result="comp"></feComposite><feGaussianBlur in="offset" stdDeviation="3" result="shadow"></feGaussianBlur><feColorMatrix in="shadow" type="matrix" values="0.7 0 0 0 0  0 0.7 0 0 0  0 0 0.7 0 0  0 0 0 0.3 0" result="dark-shadow"></feColorMatrix><feOffset dx="0" dy="4" in="dark-shadow" result="offset-shadow"></feOffset><feOffset dx="0" dy="2" in="conv" result="offset-2"></feOffset><feComposite operator="out" in="offset" in2="offset-2" result="edge-diff"></feComposite><feGaussianBlur in="edge-diff" stdDeviation="1" result="edge-blur"></feGaussianBlur><feColorMatrix in="edge-blur" result="edge-shadow" type="matrix" values="0 0 0 0 0  0 0 0 0 0  0 0 0 0 0  0 0 0 0.5 0"></feColorMatrix><feComposite operator="in" in="edge-shadow" in2="offset" result="edge-shadow-in"></feComposite><feOffset dx="0" dy="1" in="edge-shadow-in" result="edge-shadow-final"></feOffset><feMerge result="out"><feMergeNode in="offset-shadow"></feMergeNode><feMergeNode in="comp"></feMergeNode><feMergeNode in="edge-shadow-final"></feMergeNode><feMergeNode in="SourceGraphic"></feMergeNode></feMerge></filter></defs><g filter="url(#editing-shiny)"><g transform="translate(112.09914970397949, 98.68000030517578)"><path d="M29.18 1.28L29.18 1.28L29.18 1.28Q20.99 1.28 20.22-10.37L20.22-10.37L9.22-10.37L9.22-10.37Q7.94-7.42 7.04-4.86L7.04-4.86L5.38 0L-3.58 0L16.58-42.24L30.34-42.24L33.02-11.14L33.02-11.14Q33.66-4.42 36.22-2.43L36.22-2.43L36.22-2.43Q34.37 1.28 29.18 1.28ZM14.72-23.17L11.20-15.04L20.03-15.04L19.26-31.49L19.26-33.22L14.72-23.17ZM46.98-11.71L63.04-33.86L63.04-33.86Q57.22-31.42 52.16-31.42L52.16-31.42L52.16-31.42Q47.10-31.42 44.48-33.15L44.48-33.15L44.48-33.15Q41.86-34.88 41.86-37.89L41.86-37.89L41.86-37.89Q41.86-39.74 42.40-41.15L42.40-41.15L42.40-41.15Q42.94-42.56 44.35-44.29L44.35-44.29L44.35-44.29Q44.99-43.01 53.70-42.37L53.70-42.37L53.70-42.37Q56-42.24 58.05-42.24L58.05-42.24L72.26-42.24L73.66-36.86L70.72-32.26L67.84-27.33L63.94-20.10L63.94-20.10Q60.74-14.02 59.81-11.26L59.81-11.26L59.81-11.26Q58.88-8.51 58.69-7.42L58.69-7.42L58.69-7.42Q58.30-5.82 58.30-4.45L58.30-4.45L58.30-4.45Q58.30-3.07 59.01-2.37L59.01-2.37L59.01-2.37Q57.73-0.06 53.95 0.96L53.95 0.96L53.95 0.96Q52.74 1.28 51.26 1.28L51.26 1.28L51.26 1.28Q49.79 1.28 48.51 0.70L48.51 0.70L48.51 0.70Q47.23 0.13 46.40-0.77L46.40-0.77L46.40-0.77Q44.80-2.69 44.80-4.90L44.80-4.90L44.80-4.90Q44.80-7.10 45.44-8.67L45.44-8.67L45.44-8.67Q46.08-10.24 46.98-11.71L46.98-11.71ZM109.12-4.80L109.12-4.80L109.12-4.80Q109.12-9.28 110.91-18.24L110.91-18.24L101.44-18.24L97.92 0L84.54 0L92.67-42.24L106.18-42.24L102.46-23.36L111.94-23.36L115.46-42.24L128.96-42.24L128.96-42.24Q128.06-37.50 126.91-32.19L126.91-32.19L124.74-21.76L124.74-21.76Q122.30-9.60 122.30-4.29L122.30-4.29L122.30-4.29Q122.30-2.11 123.01-0.90L123.01-0.90L123.01-0.90Q119.81 1.28 116.06 1.28L116.06 1.28L116.06 1.28Q112.32 1.28 110.72-0.51L110.72-0.51L110.72-0.51Q109.12-2.30 109.12-4.80ZM144.45 1.28L144.45 1.28L144.45 1.28Q130.37 1.28 130.37-11.97L130.37-11.97L130.37-11.97Q130.37-21.38 135.55-27.46L135.55-27.46L135.55-27.46Q141.06-33.92 150.59-33.92L150.59-33.92L150.59-33.92Q157.50-33.92 161.02-30.72L161.02-30.72L161.02-30.72Q164.54-27.52 164.54-20.80L164.54-20.80L164.54-20.80Q164.54-10.56 159.04-4.61L159.04-4.61L159.04-4.61Q153.66 1.28 144.45 1.28ZM146.11-26.56L146.11-26.56L146.11-26.56Q145.34-24.83 144.74-22.24L144.74-22.24L144.74-22.24Q144.13-19.65 143.36-15.55L143.36-15.55L143.36-15.55Q142.59-11.46 142.59-6.40L142.59-6.40L142.59-6.40Q142.59-4.74 143.14-3.65L143.14-3.65L143.14-3.65Q143.68-2.56 145.15-2.56L145.15-2.56L145.15-2.56Q146.62-2.56 147.55-3.26L147.55-3.26L147.55-3.26Q148.48-3.97 149.18-5.63L149.18-5.63L149.18-5.63Q150.46-8.58 151.49-14.05L151.49-14.05L151.49-14.05Q152.51-19.52 152.61-21.89L152.61-21.89L152.61-21.89Q152.70-24.26 152.70-26.02L152.70-26.02L152.70-26.02Q152.70-27.78 152.19-28.93L152.19-28.93L152.19-28.93Q151.68-30.08 150.24-30.08L150.24-30.08L150.24-30.08Q148.80-30.08 147.84-29.18L147.84-29.18L147.84-29.18Q146.88-28.29 146.11-26.56ZM187.46-22.46L187.46-22.46L187.46-22.46Q188.35-24.83 188.35-26.88L188.35-26.88L188.35-26.88Q188.35-30.66 185.28-30.66L185.28-30.66L185.28-30.66Q183.68-30.66 182.37-29.22L182.37-29.22L182.37-29.22Q181.06-27.78 181.06-25.98L181.06-25.98L181.06-25.98Q181.06-24.70 182.08-23.68L182.08-23.68L182.08-23.68Q183.55-22.27 187.33-19.97L187.33-19.97L187.33-19.97Q191.10-17.66 192.54-15.78L192.54-15.78L192.54-15.78Q193.98-13.89 193.98-11.30L193.98-11.30L193.98-11.30Q193.98-8.70 192.74-6.34L192.74-6.34L192.74-6.34Q191.49-3.97 189.25-2.30L189.25-2.30L189.25-2.30Q184.45 1.28 176.77 1.28L176.77 1.28L176.77 1.28Q172.61 1.28 169.41-0.90L169.41-0.90L169.41-0.90Q166.21-3.01 166.21-5.50L166.21-5.50L166.21-5.50Q166.21-8 168.03-9.47L168.03-9.47L168.03-9.47Q169.86-10.94 172.54-10.94L172.54-10.94L172.54-10.94Q175.23-10.94 176.90-9.92L176.90-9.92L176.90-9.92Q176.06-7.81 176.06-6.40L176.06-6.40L176.06-6.40Q176.06-2.18 179.65-2.18L179.65-2.18L179.65-2.18Q181.18-2.18 182.21-3.14L182.21-3.14L182.21-3.14Q183.23-4.10 183.23-5.76L183.23-5.76L183.23-5.76Q183.23-9.02 177.73-12.48L177.73-12.48L177.73-12.48Q173.25-15.42 172.22-16.58L172.22-16.58L172.22-16.58Q170.50-18.62 170.50-21.18L170.50-21.18L170.50-21.18Q170.50-23.74 171.71-26.18L171.71-26.18L171.71-26.18Q172.93-28.61 175.17-30.34L175.17-30.34L175.17-30.34Q179.84-33.92 187.97-33.92L187.97-33.92L187.97-33.92Q192.13-33.92 194.59-32.26L194.59-32.26L194.59-32.26Q197.06-30.59 197.06-27.78L197.06-27.78L197.06-27.78Q197.06-24.96 195.36-23.36L195.36-23.36L195.36-23.36Q193.66-21.76 190.59-21.76L190.59-21.76L190.59-21.76Q188.48-21.76 187.46-22.46ZM200.45-6.40L200.45-6.40L200.45-6.40Q200.45-8.13 201.34-12.48L201.34-12.48L204.74-29.76L200.96-29.76L201.22-31.68L201.22-31.68Q208.90-33.98 216.32-39.62L216.32-39.62L219.39-39.62L217.86-32.64L222.85-32.64L222.27-29.76L217.34-29.76L214.08-12.48L214.08-12.48Q213.25-8.51 213.25-7.17L213.25-7.17L213.25-7.17Q213.25-4.10 215.94-3.46L215.94-3.46L215.94-3.46Q215.30-1.28 212.99 0L212.99 0L212.99 0Q210.69 1.28 207.42 1.28L207.42 1.28L207.42 1.28Q204.16 1.28 202.30-0.77L202.30-0.77L202.30-0.77Q200.45-2.82 200.45-6.40ZM248.19-10.82L248.19-10.82L248.19-10.82Q249.79-9.73 249.79-7.33L249.79-7.33L249.79-7.33Q249.79-4.93 248.58-3.39L248.58-3.39L248.58-3.39Q247.36-1.86 245.38-0.83L245.38-0.83L245.38-0.83Q241.28 1.28 236.86 1.28L236.86 1.28L236.86 1.28Q232.45 1.28 229.86 0.32L229.86 0.32L229.86 0.32Q227.26-0.64 225.54-2.43L225.54-2.43L225.54-2.43Q222.14-5.82 222.14-12.03L222.14-12.03L222.14-12.03Q222.14-21.70 227.39-27.58L227.39-27.58L227.39-27.58Q233.02-33.92 242.82-33.92L242.82-33.92L242.82-33.92Q248.90-33.92 251.90-31.36L251.90-31.36L251.90-31.36Q254.14-29.44 254.14-26.30L254.14-26.30L254.14-26.30Q254.14-15.04 234.69-15.04L234.69-15.04L234.69-15.04Q234.43-13.38 234.43-11.97L234.43-11.97L234.43-11.97Q234.43-9.02 235.74-7.90L235.74-7.90L235.74-7.90Q237.06-6.78 239.49-6.78L239.49-6.78L239.49-6.78Q241.92-6.78 244.51-7.90L244.51-7.90L244.51-7.90Q247.10-9.02 248.19-10.82ZM235.14-17.79L235.14-17.79L235.14-17.79Q239.68-17.79 242.30-20.61L242.30-20.61L242.30-20.61Q244.93-23.30 244.93-27.58L244.93-27.58L244.93-27.58Q244.93-29.06 244.38-29.86L244.38-29.86L244.38-29.86Q243.84-30.66 242.75-30.66L242.75-30.66L242.75-30.66Q241.66-30.66 240.74-30.24L240.74-30.24L240.74-30.24Q239.81-29.82 238.85-28.42L238.85-28.42L238.85-28.42Q236.48-25.22 235.14-17.79ZM271.62-3.52L271.62-3.52L271.62-3.52Q269.63 1.28 263.30 1.28L263.30 1.28L263.30 1.28Q260.10 1.28 258.05-0.96L258.05-0.96L258.05-0.96Q256.38-2.82 256.38-4.93L256.38-4.93L256.38-4.93Q256.38-9.73 258.62-20.22L258.62-20.22L263.30-44.80L276.29-46.08L270.08-13.70L270.08-13.70Q268.99-8.96 268.99-7.30L268.99-7.30L268.99-7.30Q268.99-3.65 271.62-3.52Z" fill="url(#editing-shiny-gradient)"></path></g></g><g filter="url(#editing-shiny2)"><g transform="translate(112.0723705291748, 98.67999649047852)"><path d="M29.18 1.28L29.18 1.28L29.18 1.28Q20.99 1.28 20.22-10.37L20.22-10.37L9.22-10.37L9.22-10.37Q7.94-7.42 7.04-4.86L7.04-4.86L5.38 0L-3.58 0L16.58-42.24L30.34-42.24L33.02-11.14L33.02-11.14Q33.66-4.42 36.22-2.43L36.22-2.43L36.22-2.43Q34.37 1.28 29.18 1.28ZM14.72-23.17L11.20-15.04L20.03-15.04L19.26-31.49L19.26-33.22L14.72-23.17ZM46.98-11.71L63.04-33.86L63.04-33.86Q57.22-31.42 52.16-31.42L52.16-31.42L52.16-31.42Q47.10-31.42 44.48-33.15L44.48-33.15L44.48-33.15Q41.86-34.88 41.86-37.89L41.86-37.89L41.86-37.89Q41.86-39.74 42.40-41.15L42.40-41.15L42.40-41.15Q42.94-42.56 44.35-44.29L44.35-44.29L44.35-44.29Q44.99-43.01 53.70-42.37L53.70-42.37L53.70-42.37Q56-42.24 58.05-42.24L58.05-42.24L72.26-42.24L73.66-36.86L70.72-32.26L67.84-27.33L63.94-20.10L63.94-20.10Q60.74-14.02 59.81-11.26L59.81-11.26L59.81-11.26Q58.88-8.51 58.69-7.42L58.69-7.42L58.69-7.42Q58.30-5.82 58.30-4.45L58.30-4.45L58.30-4.45Q58.30-3.07 59.01-2.37L59.01-2.37L59.01-2.37Q57.73-0.06 53.95 0.96L53.95 0.96L53.95 0.96Q52.74 1.28 51.26 1.28L51.26 1.28L51.26 1.28Q49.79 1.28 48.51 0.70L48.51 0.70L48.51 0.70Q47.23 0.13 46.40-0.77L46.40-0.77L46.40-0.77Q44.80-2.69 44.80-4.90L44.80-4.90L44.80-4.90Q44.80-7.10 45.44-8.67L45.44-8.67L45.44-8.67Q46.08-10.24 46.98-11.71L46.98-11.71ZM109.12-4.80L109.12-4.80L109.12-4.80Q109.12-9.28 110.91-18.24L110.91-18.24L101.44-18.24L97.92 0L84.54 0L92.67-42.24L106.18-42.24L102.46-23.36L111.94-23.36L115.46-42.24L128.96-42.24L128.96-42.24Q128.06-37.50 126.91-32.19L126.91-32.19L124.74-21.76L124.74-21.76Q122.30-9.60 122.30-4.29L122.30-4.29L122.30-4.29Q122.30-2.11 123.01-0.90L123.01-0.90L123.01-0.90Q119.81 1.28 116.06 1.28L116.06 1.28L116.06 1.28Q112.32 1.28 110.72-0.51L110.72-0.51L110.72-0.51Q109.12-2.30 109.12-4.80ZM144.45 1.28L144.45 1.28L144.45 1.28Q130.37 1.28 130.37-11.97L130.37-11.97L130.37-11.97Q130.37-21.38 135.55-27.46L135.55-27.46L135.55-27.46Q141.06-33.92 150.59-33.92L150.59-33.92L150.59-33.92Q157.50-33.92 161.02-30.72L161.02-30.72L161.02-30.72Q164.54-27.52 164.54-20.80L164.54-20.80L164.54-20.80Q164.54-10.56 159.04-4.61L159.04-4.61L159.04-4.61Q153.66 1.28 144.45 1.28ZM146.11-26.56L146.11-26.56L146.11-26.56Q145.34-24.83 144.74-22.24L144.74-22.24L144.74-22.24Q144.13-19.65 143.36-15.55L143.36-15.55L143.36-15.55Q142.59-11.46 142.59-6.40L142.59-6.40L142.59-6.40Q142.59-4.74 143.14-3.65L143.14-3.65L143.14-3.65Q143.68-2.56 145.15-2.56L145.15-2.56L145.15-2.56Q146.62-2.56 147.55-3.26L147.55-3.26L147.55-3.26Q148.48-3.97 149.18-5.63L149.18-5.63L149.18-5.63Q150.46-8.58 151.49-14.05L151.49-14.05L151.49-14.05Q152.51-19.52 152.61-21.89L152.61-21.89L152.61-21.89Q152.70-24.26 152.70-26.02L152.70-26.02L152.70-26.02Q152.70-27.78 152.19-28.93L152.19-28.93L152.19-28.93Q151.68-30.08 150.24-30.08L150.24-30.08L150.24-30.08Q148.80-30.08 147.84-29.18L147.84-29.18L147.84-29.18Q146.88-28.29 146.11-26.56ZM187.46-22.46L187.46-22.46L187.46-22.46Q188.35-24.83 188.35-26.88L188.35-26.88L188.35-26.88Q188.35-30.66 185.28-30.66L185.28-30.66L185.28-30.66Q183.68-30.66 182.37-29.22L182.37-29.22L182.37-29.22Q181.06-27.78 181.06-25.98L181.06-25.98L181.06-25.98Q181.06-24.70 182.08-23.68L182.08-23.68L182.08-23.68Q183.55-22.27 187.33-19.97L187.33-19.97L187.33-19.97Q191.10-17.66 192.54-15.78L192.54-15.78L192.54-15.78Q193.98-13.89 193.98-11.30L193.98-11.30L193.98-11.30Q193.98-8.70 192.74-6.34L192.74-6.34L192.74-6.34Q191.49-3.97 189.25-2.30L189.25-2.30L189.25-2.30Q184.45 1.28 176.77 1.28L176.77 1.28L176.77 1.28Q172.61 1.28 169.41-0.90L169.41-0.90L169.41-0.90Q166.21-3.01 166.21-5.50L166.21-5.50L166.21-5.50Q166.21-8 168.03-9.47L168.03-9.47L168.03-9.47Q169.86-10.94 172.54-10.94L172.54-10.94L172.54-10.94Q175.23-10.94 176.90-9.92L176.90-9.92L176.90-9.92Q176.06-7.81 176.06-6.40L176.06-6.40L176.06-6.40Q176.06-2.18 179.65-2.18L179.65-2.18L179.65-2.18Q181.18-2.18 182.21-3.14L182.21-3.14L182.21-3.14Q183.23-4.10 183.23-5.76L183.23-5.76L183.23-5.76Q183.23-9.02 177.73-12.48L177.73-12.48L177.73-12.48Q173.25-15.42 172.22-16.58L172.22-16.58L172.22-16.58Q170.50-18.62 170.50-21.18L170.50-21.18L170.50-21.18Q170.50-23.74 171.71-26.18L171.71-26.18L171.71-26.18Q172.93-28.61 175.17-30.34L175.17-30.34L175.17-30.34Q179.84-33.92 187.97-33.92L187.97-33.92L187.97-33.92Q192.13-33.92 194.59-32.26L194.59-32.26L194.59-32.26Q197.06-30.59 197.06-27.78L197.06-27.78L197.06-27.78Q197.06-24.96 195.36-23.36L195.36-23.36L195.36-23.36Q193.66-21.76 190.59-21.76L190.59-21.76L190.59-21.76Q188.48-21.76 187.46-22.46ZM200.45-6.40L200.45-6.40L200.45-6.40Q200.45-8.13 201.34-12.48L201.34-12.48L204.74-29.76L200.96-29.76L201.22-31.68L201.22-31.68Q208.90-33.98 216.32-39.62L216.32-39.62L219.39-39.62L217.86-32.64L222.85-32.64L222.27-29.76L217.34-29.76L214.08-12.48L214.08-12.48Q213.25-8.51 213.25-7.17L213.25-7.17L213.25-7.17Q213.25-4.10 215.94-3.46L215.94-3.46L215.94-3.46Q215.30-1.28 212.99 0L212.99 0L212.99 0Q210.69 1.28 207.42 1.28L207.42 1.28L207.42 1.28Q204.16 1.28 202.30-0.77L202.30-0.77L202.30-0.77Q200.45-2.82 200.45-6.40ZM248.19-10.82L248.19-10.82L248.19-10.82Q249.79-9.73 249.79-7.33L249.79-7.33L249.79-7.33Q249.79-4.93 248.58-3.39L248.58-3.39L248.58-3.39Q247.36-1.86 245.38-0.83L245.38-0.83L245.38-0.83Q241.28 1.28 236.86 1.28L236.86 1.28L236.86 1.28Q232.45 1.28 229.86 0.32L229.86 0.32L229.86 0.32Q227.26-0.64 225.54-2.43L225.54-2.43L225.54-2.43Q222.14-5.82 222.14-12.03L222.14-12.03L222.14-12.03Q222.14-21.70 227.39-27.58L227.39-27.58L227.39-27.58Q233.02-33.92 242.82-33.92L242.82-33.92L242.82-33.92Q248.90-33.92 251.90-31.36L251.90-31.36L251.90-31.36Q254.14-29.44 254.14-26.30L254.14-26.30L254.14-26.30Q254.14-15.04 234.69-15.04L234.69-15.04L234.69-15.04Q234.43-13.38 234.43-11.97L234.43-11.97L234.43-11.97Q234.43-9.02 235.74-7.90L235.74-7.90L235.74-7.90Q237.06-6.78 239.49-6.78L239.49-6.78L239.49-6.78Q241.92-6.78 244.51-7.90L244.51-7.90L244.51-7.90Q247.10-9.02 248.19-10.82ZM235.14-17.79L235.14-17.79L235.14-17.79Q239.68-17.79 242.30-20.61L242.30-20.61L242.30-20.61Q244.93-23.30 244.93-27.58L244.93-27.58L244.93-27.58Q244.93-29.06 244.38-29.86L244.38-29.86L244.38-29.86Q243.84-30.66 242.75-30.66L242.75-30.66L242.75-30.66Q241.66-30.66 240.74-30.24L240.74-30.24L240.74-30.24Q239.81-29.82 238.85-28.42L238.85-28.42L238.85-28.42Q236.48-25.22 235.14-17.79ZM271.62-3.52L271.62-3.52L271.62-3.52Q269.63 1.28 263.30 1.28L263.30 1.28L263.30 1.28Q260.10 1.28 258.05-0.96L258.05-0.96L258.05-0.96Q256.38-2.82 256.38-4.93L256.38-4.93L256.38-4.93Q256.38-9.73 258.62-20.22L258.62-20.22L263.30-44.80L276.29-46.08L270.08-13.70L270.08-13.70Q268.99-8.96 268.99-7.30L268.99-7.30L268.99-7.30Q268.99-3.65 271.62-3.52Z" fill="url(#editing-shiny-gradient2)"></path></g></g><style>text {
  font-size: 64px;
  font-family: Arial Black;
  dominant-baseline: central;
  text-anchor: middle;
}</style></svg>